<svg xmlns="http://www.w3.org/2000/svg" viewBox="0 0 820 360" font-family="-apple-system,Segoe UI,Roboto,Helvetica,Arial,sans-serif">
  <defs>
    <linearGradient id="curve" x1="0" y1="1" x2="1" y2="0">
      <stop offset="0" stop-color="#6366f1"/>
      <stop offset="1" stop-color="#22d3ee"/>
    </linearGradient>
    <linearGradient id="fill" x1="0" y1="0" x2="0" y2="1">
      <stop offset="0" stop-color="#6366f1" stop-opacity="0.18"/>
      <stop offset="1" stop-color="#6366f1" stop-opacity="0"/>
    </linearGradient>
  </defs>

  <rect x="8" y="8" width="804" height="344" rx="16" fill="#ffffff" stroke="#e2e8f0" stroke-width="1.5"/>

  <!-- header band -->
  <text x="36" y="44" font-size="20" font-weight="700" fill="#0f172a">PAIRL compresses across the whole conversation range</text>
  <text x="36" y="68" font-size="13" fill="#64748b">With the leaner conditional decoder spec, even short, terse chats gain — long chains stay near the ceiling</text>

  <!-- y gridlines -->
  <g stroke="#eef2f7" stroke-width="1">
    <line x1="120" y1="110" x2="740" y2="110"/>
    <line x1="120" y1="170" x2="740" y2="170"/>
    <line x1="120" y1="230" x2="740" y2="230"/>
  </g>
  <g font-size="11.5" fill="#94a3b8" text-anchor="end">
    <text x="108" y="114">75%</text>
    <text x="108" y="174">50%</text>
    <text x="108" y="234">25%</text>
    <text x="108" y="294">0%</text>
  </g>
  <text x="46" y="205" font-size="12" font-weight="600" fill="#475569" text-anchor="middle" transform="rotate(-90 46 205)">Token reduction</text>

  <!-- axes -->
  <line x1="120" y1="290" x2="740" y2="290" stroke="#cbd5e1" stroke-width="1.5"/>
  <line x1="120" y1="290" x2="120" y2="110" stroke="#cbd5e1" stroke-width="1.5"/>

  <!-- area + curve -->
  <path d="M 120,185 C 160,183 195,180 230,177 C 330,170 480,150 640,130 C 685,128 715,126 740,125 L 740,290 L 120,290 Z" fill="url(#fill)"/>
  <path d="M 120,185 C 160,183 195,180 230,177 C 330,170 480,150 640,130 C 685,128 715,126 740,125"
        fill="none" stroke="url(#curve)" stroke-width="3.5" stroke-linecap="round"/>

  <!-- anchor: short regime -->
  <circle cx="230" cy="177" r="5.5" fill="#6366f1" stroke="#ffffff" stroke-width="2"/>
  <text x="248" y="175" font-size="15" font-weight="700" fill="#4f46e5">~47%</text>

  <!-- anchor: long regime -->
  <circle cx="640" cy="130" r="5.5" fill="#0891b2" stroke="#ffffff" stroke-width="2"/>
  <text x="640" y="116" font-size="16" font-weight="800" fill="#0e7490" text-anchor="middle">~67%</text>

  <!-- x labels -->
  <text x="150" y="312" font-size="12" fill="#64748b">Short, terse chat</text>
  <text x="740" y="312" font-size="12" fill="#64748b" text-anchor="end">Long, prose-heavy chain</text>
  <text x="430" y="338" font-size="12" font-weight="600" fill="#475569" text-anchor="middle">Conversation length &#8594;</text>
  <text x="740" y="338" font-size="10" fill="#94a3b8" text-anchor="end">Modeled illustration; effect scales with conversation size</text>
</svg>
